<svg width="681" height="669" viewBox="0 0 681 669" fill="none" xmlns="http://www.w3.org/2000/svg">
<rect width="681" height="669" fill="#E4E4E4"/>
<path d="M105 99H222.75C287.782 99 340.5 151.718 340.5 216.75V334.5H163.875C131.359 334.5 105 308.141 105 275.625V99Z" fill="#FF4103"/>
<path d="M576 99V275.625C576 308.141 549.641 334.5 517.125 334.5H340.5V216.75C340.5 151.718 393.218 99 458.25 99L576 99Z" fill="#FF4103"/>
<path d="M576 570H458.25C393.218 570 340.5 517.282 340.5 452.25L340.5 334.5H517.125C549.641 334.5 576 360.859 576 393.375V570Z" fill="#FF4103"/>
<path d="M340.5 334.5L340.5 452.25C340.5 517.282 287.782 570 222.75 570H105L105 393.375C105 360.859 131.359 334.5 163.875 334.5H340.5Z" fill="#FF4103"/>
<path fill-rule="evenodd" clip-rule="evenodd" d="M369.166 304.083C349.891 284.808 341 240.217 341 240.217C341 240.217 332.109 284.808 312.833 304.083C293.551 323.365 248.941 332.25 248.941 332.25C248.941 332.25 293.552 341.135 312.833 360.417C332.117 379.701 341 424.317 341 424.317C341 424.317 349.883 379.701 369.166 360.417C388.448 341.135 433.058 332.25 433.058 332.25C433.058 332.25 388.448 323.365 369.166 304.083Z" fill="#E4E4E4"/>
</svg>
